<svg width="104" height="33" viewBox="0 0 104 33" fill="none" xmlns="http://www.w3.org/2000/svg">
<path d="M38.8304 12.1776C38.7799 12.9093 38.5878 13.483 38.254 13.8992C37.922 14.3133 37.4871 14.5211 36.9497 14.5233C36.4756 14.5211 36.1013 14.3669 35.8265 14.0601C35.5493 13.7513 35.4108 13.3193 35.4108 12.7642V6.31286C35.4108 5.75822 35.5493 5.3263 35.8265 5.01692C36.1014 4.7103 36.4758 4.55595 36.9497 4.55372C37.4871 4.55595 37.922 4.76409 38.254 5.1778C38.5877 5.59408 38.7797 6.16831 38.8304 6.89947L41.2299 6.48319C41.0912 5.20959 40.647 4.22252 39.898 3.52264C39.1525 2.8262 38.173 2.47455 36.9602 2.47283C36.9564 2.47283 36.9528 2.47266 36.949 2.47266C36.9464 2.47266 36.9439 2.47266 36.9411 2.47266C36.1425 2.47386 35.4276 2.63955 34.7968 2.96456C34.1607 3.29267 33.66 3.74677 33.2948 4.32684C32.9324 4.90211 32.75 5.55833 32.7471 6.29447V12.7836C32.7502 13.5203 32.9326 14.1729 33.2948 14.7416C33.66 15.3157 34.1605 15.7696 34.7968 16.1039C35.4278 16.4351 36.1425 16.6035 36.9411 16.6049C36.9439 16.6049 36.9564 16.6053 36.9602 16.6051C38.173 16.6032 39.1525 16.2484 39.898 15.5458C40.6472 14.8394 41.0912 13.8558 41.2299 12.5944L38.8304 12.1781V12.1776Z" fill="white"/>
<path d="M45.783 16.3021H49.7884V14.2211H45.783V2.77539H43.1191V16.3021H45.783Z" fill="white"/>
<path d="M54.3417 2.77539H51.6779V16.3023H54.3417V2.77539Z" fill="white"/>
<path d="M62.8619 16.3021H66.1681V2.77539H63.5044V12.0637L59.8201 2.77539H57.043V16.3021H59.7068V8.34809L62.8619 16.3021Z" fill="white"/>
<path d="M71.534 2.77539H68.8701V16.3023H71.534V2.77539Z" fill="white"/>
<path d="M78.2035 16.6046C79.4163 16.6027 80.3959 16.2479 81.1413 15.5453C81.8905 14.8389 82.3345 13.8553 82.4732 12.5939L80.0737 12.1776C80.0232 12.9093 79.8312 13.483 79.4973 13.8992C79.1654 14.3133 78.7304 14.5211 78.193 14.5233C77.719 14.5211 77.3446 14.3669 77.0698 14.0601C76.7926 13.7513 76.6541 13.3193 76.6541 12.7642V6.31286C76.6541 5.75822 76.7926 5.3263 77.0698 5.01692C77.3448 4.7103 77.7191 4.55595 78.193 4.55372C78.7304 4.55595 79.1654 4.76409 79.4973 5.1778C79.831 5.59408 80.0231 6.16831 80.0737 6.89947L82.4732 6.48319C82.3345 5.20959 81.8903 4.22252 81.1413 3.52264C80.3959 2.8262 79.4163 2.47455 78.2035 2.47283C78.1997 2.47283 78.1961 2.47266 78.1923 2.47266C78.1898 2.47266 78.1872 2.47266 78.1844 2.47266C77.3858 2.47386 76.6709 2.63955 76.0401 2.96456C75.404 3.29267 74.9034 3.74677 74.5381 4.32684C74.1758 4.90211 73.9933 5.55833 73.9902 6.29447V12.7836C73.9933 13.5203 74.1758 14.1729 74.5381 14.7416C74.9034 15.3157 75.4039 15.7696 76.0401 16.1039C76.6711 16.4351 77.3858 16.6035 78.1844 16.6049C78.1872 16.6049 78.1997 16.6053 78.2035 16.6051V16.6046Z" fill="white"/>
<path d="M86.8142 14.0133H89.8231L90.389 16.3023H92.9585L89.6144 2.77539H87.0072L83.6631 16.3023H86.2516L86.8142 14.0133ZM89.3039 11.9131H87.3304L88.3142 7.9105L89.3037 11.9131H89.3039Z" fill="white"/>
<path d="M101.234 14.2211H97.2283V2.77539H94.5645V16.3021H101.234V14.2211Z" fill="white"/>
<path d="M35.4763 27.0645H38.4045V25.0374H35.4763V21.5623H39.3082V19.5713H32.9276V32.5126H39.4889V30.5216H35.4763V27.0645Z" fill="white"/>
<path d="M46.7555 19.5703L44.9886 23.3079L43.3756 19.5703H40.7726L43.6279 26.1858L40.6279 32.5116H42.9597L44.7387 28.76L46.358 32.5116H48.9607L46.1014 25.8862L49.0872 19.5703H46.7555Z" fill="white"/>
<path d="M57.5643 21.3449C57.2146 20.7897 56.7358 20.3556 56.1273 20.0417C55.5235 19.7304 54.8393 19.5737 54.0757 19.5713H50.6233V32.5126H53.172V27.879H54.0757C54.8393 27.8766 55.5235 27.7199 56.1273 27.4084C56.7358 27.0948 57.2146 26.6606 57.5643 26.1051C57.9106 25.5549 58.0854 24.9334 58.0883 24.2408V23.2272C58.0854 22.5227 57.9106 21.8954 57.5643 21.3449ZM55.5399 24.2227C55.5399 24.7416 55.4073 25.149 55.1422 25.4444C54.8771 25.7402 54.5156 25.8879 54.0577 25.8879H53.1722V21.5621H54.0577C54.5156 21.5621 54.8771 21.7099 55.1422 22.0056C55.4073 22.3014 55.5399 22.7145 55.5399 23.2455V24.2227Z" fill="white"/>
<path d="M62.4442 19.5703H59.8955V32.5116H66.2761V30.5206H62.4442V19.5703Z" fill="white"/>
<path d="M75.3139 21.0734C74.9643 20.5186 74.4854 20.0841 73.8769 19.7702C73.2779 19.4615 72.5999 19.3026 71.8435 19.3001C71.8373 19.3001 71.8315 19.3 71.8253 19.3C71.8193 19.3 71.8133 19.2998 71.8071 19.2998C71.0503 19.3022 70.3725 19.4615 69.7737 19.7704C69.165 20.0844 68.6862 20.5187 68.3367 21.0736C67.9931 21.6193 67.8189 22.2408 67.813 22.9379H67.8125V29.128C67.8154 29.8325 67.99 30.4571 68.3367 31.0012C68.6862 31.5505 69.165 31.985 69.7737 32.3044C70.3725 32.6191 71.0503 32.7788 71.8071 32.7837V32.7843C71.8133 32.7843 71.8191 32.7841 71.8253 32.7841C71.8313 32.7841 71.8373 32.7843 71.8435 32.7843V32.7837C72.5997 32.7788 73.2779 32.6191 73.8769 32.3044C74.4854 31.9849 74.9643 31.5505 75.3139 31.0012C75.6603 30.4571 75.835 29.8325 75.8379 29.128V22.9379C75.8321 22.2408 75.6573 21.6193 75.3139 21.0736V21.0734ZM73.2714 29.1097C73.2714 29.6408 73.1419 30.0539 72.8829 30.3496C72.6272 30.6415 72.2746 30.7888 71.8255 30.7927C71.3759 30.7888 71.0203 30.6415 70.7591 30.3496C70.4939 30.0539 70.3614 29.6408 70.3614 29.1097V22.9738C70.3614 22.4429 70.4939 22.0297 70.7591 21.7339C71.0203 21.4424 71.3759 21.2948 71.8255 21.2908C72.2746 21.2948 72.627 21.4422 72.8829 21.7339C73.1419 22.0297 73.2714 22.4429 73.2714 22.9738V29.1097Z" fill="white"/>
<path d="M85.0388 25.7884C85.3851 25.2442 85.5599 24.6198 85.5628 23.9151V23.2272C85.5599 22.5227 85.3851 21.8954 85.0388 21.3449C84.6891 20.7897 84.2102 20.3556 83.6018 20.0417C82.9979 19.7304 82.3138 19.5737 81.5502 19.5713H78.0978V32.5126H80.6465V27.5712H81.4441L83.2854 32.5126H85.7797L83.7195 27.0274C84.2722 26.7146 84.7119 26.3019 85.0386 25.7885L85.0388 25.7884ZM80.6465 21.5621H81.532C81.9899 21.5621 82.3514 21.7099 82.6166 22.0056C82.8816 22.3014 83.0143 22.7145 83.0143 23.2455V23.8969C83.0143 24.428 82.8816 24.8382 82.6166 25.1278C82.3514 25.4174 81.9901 25.5622 81.532 25.5622H80.6465V21.5621Z" fill="white"/>
<path d="M90.3171 27.0635H93.2453V25.0365H90.3171V21.5613H94.1491V19.5703H87.7686V32.5116H94.3299V30.5206H90.3171V27.0635Z" fill="white"/>
<path d="M101.505 32.5126H104L101.939 27.0272C102.492 26.7144 102.932 26.3017 103.258 25.7884C103.605 25.2442 103.78 24.6198 103.783 23.9151V23.2272C103.78 22.5227 103.605 21.8954 103.258 21.3449C102.909 20.7897 102.43 20.3556 101.822 20.0417C101.218 19.7304 100.534 19.5737 99.7699 19.5713H96.3175V32.5126H98.8662V27.5712H99.6638L101.505 32.5126H101.505ZM98.8664 21.5623H99.7519C100.21 21.5623 100.571 21.7101 100.836 22.0057C101.101 22.3015 101.234 22.7147 101.234 23.2456V23.897C101.234 24.4281 101.101 24.8384 100.836 25.128C100.571 25.4176 100.21 25.5623 99.7519 25.5623H98.8664V21.5623Z" fill="white"/>
<path d="M11.0977 0L19.9389 4.32953V9.36805C19.9389 10.198 19.099 10.7448 18.3714 10.3885L11.0977 6.82653V0Z" fill="#B1231D"/>
<path d="M11.0977 11.25L19.9389 15.5795V20.618C19.9389 21.448 19.099 21.9948 18.3714 21.6385L11.0977 18.0765V11.25Z" fill="#B1231D"/>
<path d="M11.0977 22.501L19.9389 26.8305V31.869C19.9389 32.699 19.099 33.2457 18.3714 32.8894L11.0977 29.3275V22.501Z" fill="#B1231D"/>
<path d="M8.84121 0L0 4.32953V31.8283C0 32.6583 0.839838 33.205 1.56742 32.8488L8.84121 29.2868V0Z" fill="#B1231D"/>
</svg>