<svg width="90" height="28" viewBox="0 0 90 28" fill="none" xmlns="http://www.w3.org/2000/svg">
<g clip-path="url(#clip0_2613_254)">
<path d="M9.604 0L17.2551 3.67354V7.94865C17.2551 8.65287 16.5283 9.11677 15.8986 8.81446L9.604 5.79221V0V0Z" fill="#B1231D"/>
<path d="M9.604 9.5459L17.2551 13.2194V17.4945C17.2551 18.1988 16.5283 18.6627 15.8986 18.3604L9.604 15.3381V9.5459V9.5459Z" fill="#B1231D"/>
<path d="M9.604 19.0918L17.2551 22.7653V27.0404C17.2551 27.7447 16.5283 28.2086 15.8986 27.9063L9.604 24.884V19.0918V19.0918Z" fill="#B1231D"/>
<path d="M33.6035 10.3321C33.5598 10.9529 33.3936 11.4397 33.1047 11.7929C32.8174 12.1443 32.4411 12.3206 31.976 12.3225C31.5657 12.3206 31.2418 12.1898 31.004 11.9294C30.7641 11.6674 30.6442 11.3009 30.6442 10.8299V5.35601C30.6442 4.88541 30.7641 4.51893 31.004 4.25643C31.2419 3.99626 31.5659 3.8653 31.976 3.86341C32.4411 3.8653 32.8174 4.04191 33.1047 4.39293C33.3935 4.74614 33.5597 5.23336 33.6035 5.85374L35.68 5.50053C35.56 4.41991 35.1756 3.58239 34.5274 2.98855C33.8823 2.39764 33.0346 2.09926 31.9851 2.0978C31.9818 2.0978 31.9787 2.09766 31.9754 2.09766C31.9732 2.09766 31.9709 2.09766 31.9686 2.09766C31.2774 2.09868 30.6588 2.23926 30.1129 2.51503C29.5624 2.79343 29.1292 3.17872 28.8131 3.67091C28.4995 4.15901 28.3416 4.7158 28.3391 5.34041V10.8463C28.3418 11.4714 28.4997 12.0251 28.8131 12.5077C29.1292 12.9948 29.5623 13.3799 30.1129 13.6636C30.6589 13.9446 31.2774 14.0875 31.9686 14.0887C31.9709 14.0887 31.9818 14.0889 31.9851 14.0888C33.0346 14.0872 33.8823 13.7862 34.5274 13.19C35.1757 12.5907 35.56 11.7561 35.68 10.6858L33.6035 10.3326V10.3321Z" fill="#043673"/>
<path d="M39.6202 13.8317H43.0864V12.066H39.6202V2.35449H37.3149V13.8317H39.6202Z" fill="#043673"/>
<path d="M47.0267 2.35449H44.7214V13.8319H47.0267V2.35449Z" fill="#043673"/>
<path d="M54.4004 13.8317H57.2615V2.35449H54.9564V10.2355L51.768 2.35449H49.3647V13.8317H51.67V7.08285L54.4004 13.8317Z" fill="#043673"/>
<path d="M61.9049 2.35449H59.5996V13.8319H61.9049V2.35449Z" fill="#043673"/>
<path d="M67.6764 14.0884C68.7259 14.0868 69.5736 13.7858 70.2187 13.1896C70.8671 12.5902 71.2513 11.7556 71.3713 10.6853L69.2948 10.3321C69.2511 10.9529 69.0849 11.4397 68.796 11.7929C68.5088 12.1443 68.1324 12.3206 67.6673 12.3225C67.2571 12.3206 66.9331 12.1898 66.6953 11.9294C66.4554 11.6674 66.3355 11.3009 66.3355 10.8299V5.35601C66.3355 4.88541 66.4554 4.51893 66.6953 4.25643C66.9332 3.99626 67.2572 3.8653 67.6673 3.86341C68.1324 3.8653 68.5088 4.04191 68.796 4.39293C69.0848 4.74614 69.251 5.23336 69.2948 5.85374L71.3713 5.50053C71.2513 4.41991 70.8669 3.58239 70.2187 2.98855C69.5736 2.39764 68.7259 2.09926 67.6764 2.0978C67.6731 2.0978 67.67 2.09766 67.6667 2.09766C67.6645 2.09766 67.6623 2.09766 67.6599 2.09766C66.9687 2.09868 66.3501 2.23926 65.8042 2.51503C65.2538 2.79343 64.8205 3.17872 64.5044 3.67091C64.1908 4.15901 64.0329 4.7158 64.0303 5.34041V10.8463C64.0329 11.4714 64.1908 12.0251 64.5044 12.5077C64.8205 12.9948 65.2536 13.3799 65.8042 13.6636C66.3502 13.9446 66.9687 14.0875 67.6599 14.0887C67.6623 14.0887 67.6731 14.0889 67.6764 14.0888V14.0884Z" fill="#043673"/>
<path d="M75.1283 11.8897H77.7321L78.2219 13.8319H80.4454L77.5515 2.35449H75.2953L72.4014 13.8319H74.6414L75.1283 11.8897V11.8897ZM77.2828 10.1077H75.575L76.4264 6.71156L77.2827 10.1077H77.2828Z" fill="#043673"/>
<path d="M87.6067 12.066H84.1405V2.35449H81.8352V13.8317H87.6067V12.066Z" fill="#043673"/>
<path d="M30.701 22.9634H33.235V21.2434H30.701V18.2948H34.017V16.6055H28.4954V27.586H34.1734V25.8967H30.701V22.9634Z" fill="#B1231D"/>
<path d="M40.4614 16.6055L38.9324 19.7768L37.5364 16.6055H35.2839L37.7548 22.2186L35.1587 27.586H37.1765L38.7161 24.4027L40.1174 27.586H42.3698L39.8953 21.9644L42.4792 16.6055H40.4614Z" fill="#B1231D"/>
<path d="M49.8155 18.1103C49.5129 17.6393 49.0985 17.2709 48.5719 17.0046C48.0494 16.7405 47.4573 16.6075 46.7965 16.6055H43.8088V27.586H46.0144V23.6545H46.7965C47.4573 23.6524 48.0494 23.5194 48.5719 23.2552C49.0985 22.989 49.5129 22.6207 49.8155 22.1493C50.1152 21.6825 50.2664 21.1552 50.2689 20.5675V19.7075C50.2664 19.1097 50.1152 18.5774 49.8155 18.1103V18.1103ZM48.0636 20.5522C48.0636 20.9924 47.9488 21.3381 47.7195 21.5887C47.49 21.8397 47.1772 21.965 46.7809 21.965H46.0146V18.2947H46.7809C47.1772 18.2947 47.49 18.4201 47.7195 18.6709C47.9488 18.9219 48.0636 19.2725 48.0636 19.7229V20.5522V20.5522Z" fill="#B1231D"/>
<path d="M54.0389 16.6055H51.8333V27.586H57.3549V25.8967H54.0389V16.6055Z" fill="#B1231D"/>
<path d="M65.1759 17.8799C64.8733 17.4091 64.4589 17.0404 63.9324 16.7741C63.414 16.5122 62.8273 16.3773 62.1727 16.3753C62.1673 16.3753 62.1623 16.3751 62.1569 16.3751C62.1517 16.3751 62.1465 16.375 62.1412 16.375C61.4863 16.377 60.8997 16.5122 60.3815 16.7743C59.8548 17.0407 59.4404 17.4093 59.138 17.88C58.8406 18.343 58.6898 18.8704 58.6848 19.4619H58.6843V24.714C58.6869 25.3118 58.8379 25.8418 59.138 26.3035C59.4404 26.7696 59.8548 27.1382 60.3815 27.4092C60.8997 27.6762 61.4863 27.8117 62.1412 27.8159V27.8164C62.1465 27.8164 62.1516 27.8162 62.1569 27.8162C62.1621 27.8162 62.1673 27.8164 62.1727 27.8164V27.8159C62.8271 27.8117 63.414 27.6762 63.9324 27.4092C64.4589 27.1381 64.8733 26.7696 65.1759 26.3035C65.4757 25.8418 65.6269 25.3118 65.6294 24.714V19.4619C65.6243 18.8704 65.4731 18.343 65.1759 17.88V17.8799ZM63.4083 24.6986C63.4083 25.1492 63.2963 25.4996 63.0722 25.7506C62.8509 25.9983 62.5458 26.1232 62.1571 26.1266C61.7681 26.1232 61.4603 25.9983 61.2342 25.7506C61.0047 25.4996 60.8901 25.1492 60.8901 24.6986V19.4923C60.8901 19.0419 61.0047 18.6913 61.2342 18.4403C61.4603 18.193 61.7681 18.0677 62.1571 18.0643C62.5458 18.0677 62.8507 18.1928 63.0722 18.4403C63.2963 18.6913 63.4083 19.0419 63.4083 19.4923V24.6986Z" fill="#B1231D"/>
<path d="M73.5916 21.8806C73.8913 21.4188 74.0425 20.889 74.0451 20.2911V19.7075C74.0425 19.1097 73.8913 18.5774 73.5916 18.1103C73.289 17.6393 72.8746 17.2709 72.348 17.0046C71.8255 16.7405 71.2334 16.6075 70.5726 16.6055H67.585V27.586H69.7906V23.3933H70.4808L72.0743 27.586H74.2328L72.4499 22.9319C72.9282 22.6664 73.3088 22.3163 73.5914 21.8807L73.5916 21.8806ZM69.7906 18.2947H70.5569C70.9531 18.2947 71.266 18.4201 71.4954 18.6709C71.7248 18.9219 71.8396 19.2725 71.8396 19.7229V20.2757C71.8396 20.7263 71.7248 21.0744 71.4954 21.3201C71.266 21.5658 70.9533 21.6886 70.5569 21.6886H69.7906V18.2947Z" fill="#B1231D"/>
<path d="M78.1591 22.9634H80.6931V21.2434H78.1591V18.2948H81.4753V16.6055H75.9536V27.586H81.6317V25.8967H78.1591V22.9634Z" fill="#B1231D"/>
<path d="M87.8415 27.586H90L88.2172 22.9317C88.6955 22.6663 89.076 22.3162 89.3587 21.8806C89.6584 21.4188 89.8096 20.889 89.8121 20.2911V19.7075C89.8096 19.1097 89.6584 18.5774 89.3587 18.1103C89.0561 17.6393 88.6417 17.2709 88.1151 17.0046C87.5926 16.7405 87.0005 16.6075 86.3397 16.6055H83.3521V27.586H85.5576V23.3933H86.2479L87.8414 27.586H87.8415ZM85.5578 18.2948H86.3241C86.7204 18.2948 87.0332 18.4202 87.2627 18.6711C87.492 18.922 87.6068 19.2726 87.6068 19.7231V20.2758C87.6068 20.7264 87.492 21.0745 87.2627 21.3203C87.0332 21.566 86.7204 21.6888 86.3241 21.6888H85.5578V18.2948Z" fill="#B1231D"/>
<path d="M7.65105 0L0 3.67354V27.0059C0 27.7101 0.726783 28.174 1.35642 27.8717L7.65105 24.8494V0V0Z" fill="#043673"/>
</g>
<defs>
<clipPath id="clip0_2613_254">
<rect width="90" height="28" fill="white"/>
</clipPath>
</defs>
</svg>
