<svg width="120" height="36" viewBox="0 0 120 36" fill="none" xmlns="http://www.w3.org/2000/svg">
<path d="M37.0313 13.132C37.0313 12.3995 37.2144 11.7428 37.5806 11.1618C37.9468 10.5809 38.4489 10.1263 39.0869 9.79812C39.7252 9.46994 40.4482 9.30578 41.2559 9.30566V11.3893C40.7759 11.3893 40.3969 11.5409 40.1191 11.844C39.8413 12.1471 39.7024 12.5765 39.7025 13.132H37.0313ZM37.0313 19.6295V13.132H39.7023V19.6295H37.0313ZM37.0313 19.6103H39.7023C39.7023 20.166 39.8412 20.5986 40.1189 20.9081C40.3966 21.2176 40.7756 21.3723 41.2558 21.3722V23.4558C40.4474 23.4558 39.7244 23.2885 39.0867 22.954C38.449 22.6194 37.947 22.1648 37.5806 21.5901C37.2142 21.0155 37.0311 20.3556 37.0313 19.6103ZM43.1311 13.7381C43.0803 13.0057 42.8876 12.4312 42.553 12.0145C42.2184 11.5978 41.7796 11.3894 41.2366 11.3893V9.30566C42.4617 9.30566 43.4499 9.65613 44.2013 10.357C44.9526 11.058 45.3976 12.0398 45.5361 13.3026L43.1311 13.7381ZM43.1311 19.0232L45.5361 19.4398C45.3972 20.7028 44.9521 21.6879 44.2007 22.395C43.4493 23.1022 42.4613 23.4558 41.2366 23.4558V21.3722C41.7796 21.3722 42.2184 21.1638 42.553 20.747C42.8876 20.3302 43.0803 19.7554 43.1311 19.0228V19.0232Z" fill="white"/>
<path d="M47.2422 23.1527V9.6084H49.9129V23.1527H47.2422ZM49.3448 23.1527V21.069H53.9288V23.1527H49.3448Z" fill="white"/>
<path d="M55.6328 23.1527V9.6084H58.3037V23.1527H55.6328Z" fill="white"/>
<path d="M60.8223 23.1527V9.6084H63.493V23.1527H60.8223ZM66.6564 23.1527L61.2766 9.6084H63.607L68.9868 23.1527H66.6564ZM67.3006 23.1527V9.6084H69.9717V23.1527H67.3006Z" fill="white"/>
<path d="M72.4922 23.1527V9.6084H75.1631V23.1527H72.4922Z" fill="white"/>
<path d="M77.4355 13.132C77.4355 12.3995 77.6186 11.7428 77.9847 11.1618C78.3508 10.5809 78.8529 10.1263 79.491 9.79812C80.1284 9.46994 80.8514 9.30578 81.6599 9.30566V11.3893C81.1801 11.3893 80.8012 11.5409 80.5232 11.844C80.2453 12.1471 80.1064 12.5765 80.1066 13.132H77.4355ZM77.4355 19.6295V13.132H80.1066V19.6295H77.4355ZM77.4355 19.6103H80.1066C80.1066 20.166 80.2455 20.5986 80.5232 20.9081C80.8009 21.2176 81.1798 21.3723 81.6599 21.3722V23.4558C80.8515 23.4558 80.1286 23.2885 79.491 22.954C78.8534 22.6194 78.3513 22.1648 77.9847 21.5901C77.6184 21.0155 77.4353 20.3556 77.4355 19.6103ZM83.5352 13.7381C83.4844 13.0057 83.2917 12.4312 82.9571 12.0145C82.6226 11.5978 82.1837 11.3894 81.6405 11.3893V9.30566C82.8657 9.30566 83.8539 9.65613 84.6052 10.357C85.3565 11.058 85.8016 12.0398 85.9406 13.3026L83.5352 13.7381ZM83.5352 19.0232L85.9409 19.4398C85.8022 20.7028 85.3571 21.6879 84.6056 22.395C83.8541 23.1022 82.8658 23.4558 81.6409 23.4558V21.3722C82.1841 21.3722 82.6229 21.1638 82.9575 20.747C83.292 20.3302 83.4846 19.7554 83.5352 19.0228V19.0232Z" fill="white"/>
<path d="M92.8744 9.6084L89.5404 23.1527H86.9453L90.2982 9.6084H92.8744ZM89.5214 20.8418V18.7582H94.3708V20.8418H89.5214ZM92.9124 9.6084L96.2651 23.1527H93.6888L90.3361 9.6084H92.9124Z" fill="white"/>
<path d="M97.6855 23.1527V9.6084H100.356V23.1527H97.6855ZM99.7881 23.1527V21.069H104.372V23.1527H99.7881Z" fill="white"/>
<path d="M109.164 23.1527L112.384 16.3712H114.828L111.608 23.1527H109.164ZM115.169 23.1527L109.316 9.6084H112.044L117.897 23.1527H115.169ZM112.384 16.3712L115.586 9.6084H118.029L114.828 16.3712H112.384Z" fill="white"/>
<path d="M14.3066 0.657715L23.4055 4.9823V25.0589C23.4055 25.8879 22.5412 26.434 21.7924 26.0781L14.3072 22.5193L14.3066 0.657715Z" fill="#B1231D"/>
<path d="M11.985 10.1309L2.88672 14.4554V34.532C2.88672 35.3612 3.75095 35.9073 4.49975 35.5513L11.985 31.9924V10.1309Z" fill="white"/>
</svg>
